<?xml version="1.0" encoding="iso-8859-1"?>
<!-- Uploaded to: SVG Repo, www.svgrepo.com, Generator: SVG Repo Mixer Tools -->
<svg fill="#000000" height="800px" width="800px" version="1.1" id="Layer_1" xmlns="http://www.w3.org/2000/svg" xmlns:xlink="http://www.w3.org/1999/xlink" 
	 viewBox="0 0 512 512" xml:space="preserve">
<g>
	<g>
		<path d="M122.966,73.09l-28.05-15.347L79.564,29.689c-3.297-6.05-13.242-6.05-16.539,0L47.674,57.744L19.624,73.09
			c-3.03,1.653-4.908,4.825-4.908,8.274s1.879,6.621,4.908,8.274l28.05,15.342l15.351,28.059c1.648,3.021,4.826,4.904,8.27,4.904
			c3.444,0,6.621-1.883,8.27-4.904l15.351-28.059l28.05-15.342c3.03-1.653,4.908-4.826,4.908-8.274S125.995,74.743,122.966,73.09z
			 M83.441,89.758c-1.584,0.866-2.883,2.169-3.748,3.748l-8.398,15.351l-8.398-15.351c-0.866-1.579-2.164-2.882-3.748-3.748
			l-15.351-8.394l15.351-8.398c1.584-0.866,2.882-2.169,3.748-3.748l8.398-15.351l8.398,15.351c0.866,1.579,2.164,2.882,3.748,3.748
			l15.351,8.398L83.441,89.758z"/>
	</g>
</g>
<g>
	<g>
		<path d="M490.731,421.996l-28.05-15.347l-15.351-28.055c-3.297-6.05-13.242-6.05-16.539,0l-15.351,28.055l-28.05,15.347
			c-3.03,1.653-4.908,4.824-4.908,8.274c0,3.449,1.879,6.621,4.908,8.274l28.05,15.342l15.351,28.059
			c1.648,3.021,4.826,4.904,8.27,4.904c3.444,0,6.621-1.883,8.27-4.904l15.351-28.059l28.05-15.342
			c3.03-1.653,4.908-4.826,4.908-8.274C495.639,426.82,493.76,423.648,490.731,421.996z M451.206,438.664
			c-1.584,0.866-2.883,2.169-3.748,3.748l-8.398,15.35l-8.398-15.35c-0.866-1.579-2.164-2.882-3.748-3.748l-15.351-8.394
			l15.351-8.398c1.584-0.867,2.882-2.169,3.748-3.748l8.398-15.351l8.398,15.351c0.866,1.579,2.164,2.881,3.748,3.748l15.351,8.398
			L451.206,438.664z"/>
	</g>
</g>
<g>
	<g>
		<path d="M402.841,351.027c-4.255-3.039-10.13-2.063-13.159,2.164c-30.076,41.937-78.81,66.976-130.352,66.976
			c-27.093,0-53.853-6.879-77.41-19.891c-4.577-2.514-10.305-0.857-12.81,3.697c-2.523,4.558-0.866,10.296,3.693,12.814
			c26.337,14.55,56.257,22.239,86.526,22.239c57.611,0,112.063-27.977,145.675-74.84
			C408.044,359.951,407.068,354.062,402.841,351.027z"/>
	</g>
</g>
<g>
	<g>
		<path d="M510.272,193.754c-9.317-34.784-54.219-56.32-123.383-59.352c-32.804-33.235-78.268-53.71-127.559-53.71
			c-82.265,0-151.711,55.749-172.661,131.437c-63.746,38.498-94.674,81.35-84.892,117.875c10.379,38.733,65.3,59.756,140.997,59.756
			c42.269-0.005,91.02-6.557,142.093-20.247C427.429,331.316,526.443,254.109,510.272,193.754z M90.274,319.349
			c1.363,3.877,5.01,6.304,8.896,6.304c1.041,0,2.1-0.175,3.131-0.539c4.908-1.731,7.496-7.114,5.765-12.027
			c-6.004-17.046-9.043-34.957-9.043-53.227c0-88.396,71.912-160.308,160.308-160.308c79.196,0,147.406,59.015,158.66,137.272
			c0.746,5.143,5.378,8.707,10.682,7.989c5.157-0.741,8.73-5.521,7.993-10.677c-2.532-17.589-7.673-34.286-14.935-49.774
			c19.451,5.128,31.755,13.37,34.466,23.496c3.988,14.872-11.888,36.334-42.462,57.403c-34.165,23.538-82.567,44.431-136.291,58.831
			c-115.433,30.923-204.833,18.864-212.918-11.286c-2.636-9.832,3.161-22.36,16.454-35.985
			C82.343,291.351,85.432,305.598,90.274,319.349z M279.986,351.299c-141.163,37.825-248.418,17.004-259.994-26.176
			c-6.55-24.44,16.776-57.02,61.582-87.364c-0.583,4.708-1.006,9.462-1.213,14.274c-0.391,0.242-0.785,0.48-1.146,0.785
			c-33.925,28.535-36.615,51.028-32.903,64.869c6.824,25.476,44.746,43.713,107.725,43.713c35.261,0,78.386-5.722,128.288-19.093
			c55.76-14.943,106.224-36.785,142.111-61.515c38.558-26.572,56.303-54.208,49.977-77.815
			c-3.868-14.437-18.296-33.061-64.794-40.362c-1.796-2.752-3.649-5.461-5.59-8.105c49.443,4.945,81.802,20.907,88.028,44.124
			C503.623,241.819,421.167,313.469,279.986,351.299z"/>
	</g>
</g>
</svg>