<?xml version="1.0" encoding="iso-8859-1"?>
<svg  fill="currentColor" height="800px" width="800px" version="1.1" id="Layer_1" xmlns="http://www.w3.org/2000/svg" xmlns:xlink="http://www.w3.org/1999/xlink" 
	 viewBox="0 0 496 496" xml:space="preserve">
<g>
	<g>
		<g>
			<path d="M248,0C111.248,0,0,111.248,0,248s111.248,248,248,248s248-111.248,248-248S384.752,0,248,0z M408.008,104.72
				c-0.008,6.376-3.544,12.112-9.248,14.96L382.112,128h-82.048l82.36-38.432c2.184-1.032,4.632-1.568,7.064-1.568h1.8
				C400.504,88,408.008,95.504,408.008,104.72z M248,16c58.432,0,111.84,21.76,152.672,57.536C397.68,72.632,394.568,72,391.28,72
				h-1.8c-4.76,0-9.544,1.064-13.832,3.072L262.224,128H248h-14.224L120.36,75.072C116.064,73.064,111.272,72,106.512,72h-1.792
				c-3.288,0-6.4,0.632-9.392,1.536C136.16,37.76,189.568,16,248,16z M104.72,88h1.8c2.432,0,4.872,0.536,7.072,1.568L195.936,128
				h-82.048l-16.648-8.32c-5.704-2.848-9.24-8.584-9.24-14.96C88,95.504,95.504,88,104.72,88z M96,144h304c8.824,0,16,7.176,16,16
				c0,8.824-7.176,16-16,16H288v280h-32V304h-16v152h-32V176H96c-8.824,0-16-7.176-16-16C80,151.176,87.176,144,96,144z
				 M304,309.448l84.504,97.504l-27.576,22.056L304,364.96V309.448z M248,480C120.08,480,16,375.92,16,248
				c0-58.432,21.76-111.84,57.536-152.672C72.632,98.32,72,101.432,72,104.72c0,10.152,4.648,19.424,12.368,25.544
				C72.472,134.936,64,146.464,64,160c0,17.648,14.352,32,32,32h96v93.008L84.504,409.048l52.424,41.944L192,389.04V472h112v-82.96
				l55.072,61.952l52.424-41.944L304,285.008V192h96c17.648,0,32-14.352,32-32c0-13.536-8.472-25.064-20.368-29.736
				c7.72-6.128,12.368-15.392,12.368-25.544c0-3.288-0.632-6.4-1.536-9.392C458.24,136.16,480,189.568,480,248
				C480,375.92,375.92,480,248,480z M192,309.448v55.512L135.072,429l-27.576-22.056L192,309.448z"/>
			<path d="M192,72c0,30.872,25.128,56,56,56s56-25.128,56-56s-25.128-56-56-56S192,41.128,192,72z M248,32
				c22.056,0,40,17.944,40,40c0,22.056-17.944,40-40,40c-22.056,0-40-17.944-40-40C208,49.944,225.944,32,248,32z"/>
			<path d="M464,224v-16h-27.976c-9.696,0-19.048,3.512-26.336,9.888L392,233.368l-17.688-15.48
				c-7.288-6.376-16.64-9.888-26.336-9.888H320v16h16v40h-16v16h27.976c9.696,0,19.048-3.512,26.336-9.888L392,254.632l17.688,15.48
				c7.288,6.376,16.64,9.888,26.336,9.888H464v-16h-16v-40H464z M363.784,258.064c-3.352,2.936-7.44,4.832-11.784,5.576v-39.272
				c4.344,0.736,8.424,2.64,11.784,5.576l16.072,14.064L363.784,258.064z M432.008,263.632c-4.344-0.736-8.424-2.64-11.784-5.576
				L404.152,244l16.072-14.064c3.352-2.936,7.44-4.832,11.784-5.576V263.632z"/>
			<path d="M104,254.632l17.688,15.48c7.288,6.376,16.64,9.888,26.336,9.888H176v-16h-16v-40h16v-16h-27.976
				c-9.696,0-19.048,3.512-26.336,9.888L104,233.368l-17.688-15.48C79.024,211.512,69.672,208,59.976,208H32v16h16v40H32v16h27.976
				c9.696,0,19.048-3.512,26.336-9.888L104,254.632z M132.216,229.936c3.352-2.936,7.44-4.832,11.784-5.576v39.272
				c-4.344-0.736-8.424-2.64-11.784-5.576L116.152,244L132.216,229.936z M64,263.64v-39.272c4.344,0.736,8.424,2.64,11.784,5.576
				l16.072,14.064l-16.072,14.064C72.424,261,68.344,262.896,64,263.64z"/>
		</g>
	</g>
</g>
</svg>