<?xml version="1.0" encoding="utf-8"?>
<!-- Svg Vector Icons : http://www.onlinewebfonts.com/icon -->
<!DOCTYPE svg PUBLIC "-//W3C//DTD SVG 1.1//EN" "http://www.w3.org/Graphics/SVG/1.1/DTD/svg11.dtd">
<svg version="1.1" xmlns="http://www.w3.org/2000/svg" xmlns:xlink="http://www.w3.org/1999/xlink" x="0px" y="0px" viewBox="0 0 256 256" enable-background="new 0 0 256 256" xml:space="preserve">
<metadata> Svg Vector Icons : http://www.onlinewebfonts.com/icon </metadata>
<g><g><g><path fill="#000000" d="M119.5,10.1c-13.9,0.9-29.6,5.2-42.5,11.4c-12.4,6-21.2,12.2-31.1,21.8C35.4,53.4,28.5,62.8,22.3,75.4C16.4,87.1,12.7,99,10.9,112c-1.2,8.8-1.2,24.4,0.2,33.3c2,12.9,5.4,23.7,11.2,35.3c6.4,12.8,13,21.9,23.6,32.1c9.9,9.7,18.5,15.7,31.1,21.8c32.9,15.9,70.6,15.7,103.6-0.8c12.6-6.2,21.9-13.1,32.1-23.6c9.6-9.8,15.7-18.7,21.8-31.1c5.4-11.3,8.8-22.5,10.7-35.1c1.2-8.4,1.1-24.7-0.2-33.3c-2-12.8-5.3-23.1-11.2-35.1c-6.2-12.7-13.2-22.2-23.7-32.4c-9.7-9.5-17.9-15.2-30.1-21.2c-8.4-4.1-14-6.2-22.1-8.3C144.9,10.4,132.3,9.2,119.5,10.1z M95.3,72.8c2.4,0.7,3.3,1.5,18,16.2l15.5,15.4l15-15.1c8.3-8.3,15.7-15.4,16.6-15.9c2.6-1.3,5.5-1.6,8.6-0.7c2.4,0.7,3.2,1.3,8.6,6.6c7.5,7.4,8.4,8.8,8.4,13.5c0,2.4-0.3,3.9-0.9,5.1c-0.5,0.9-7.6,8.4-15.9,16.7l-15.1,15.1l15.1,15.1c8.3,8.4,15.4,15.9,15.9,16.8c1.2,2.4,1.2,7.9-0.1,10.4c-0.5,1-3.7,4.6-7.2,7.9c-6.6,6.5-7.9,7.3-12.1,7.3c-4.8,0-5.2-0.3-21.7-16.8l-15.2-15.2l-15.5,15.4c-15.1,15.1-15.5,15.5-18.2,16.2c-3,0.9-5.4,0.7-8.4-0.6c-1.2-0.6-4.2-3.2-8.1-7.3c-6.6-6.8-7.4-8-7.4-12.2c0-4.7,0-4.6,16.6-21.4l15.5-15.6L88,114.4c-10.3-10.3-15.6-15.9-16.1-17c-1-2.4-0.9-7,0.2-9.3c0.5-1.1,3.6-4.6,7.1-8.1c5.3-5.2,6.6-6.3,8.7-7C91,71.9,92.1,71.9,95.3,72.8z"/></g></g></g>
</svg>