<?xml version="1.0" encoding="utf-8"?>
<svg version="1.1" xmlns="http://www.w3.org/2000/svg" xmlns:xlink="http://www.w3.org/1999/xlink" x="0px" y="0px" viewBox="0 0 256 256" enable-background="new 0 0 256 256" xml:space="preserve"  fill="currentColor">
<g><g><path  fill="currentColor" d="M53.5,95.4c23,28.3,45.9,56.9,70.6,83.6c24.5-11.5,45.3-25.7,51.9-56.7c-23.4-27.6-47.7-54.3-70.6-82.1C100.7,71.3,82.3,88.6,53.5,95.4 M127,59.8c17.6,20.8,36.1,40.6,53.3,61.7c-4.7,26.2-22,42.7-40.3,53.8c-5.1,3.1-11.8,5-15.1,9.5c30.7-9.3,59.7-26.5,74.9-53.8c-22.3-26.2-45.3-51.7-67-78.5C130.6,54.7,128.6,57.1,127,59.8 M52,121.5c22.7,29.5,45.2,59.1,68.4,87.9c0.4-8.5-0.8-18.7,0.7-26.1c-22.5-28.1-46.1-55.2-69.1-82.9L52,121.5L52,121.5z M137.1,185.5c-4.3,1.7-9.5,1.2-12.3,5.9c29.8-7.5,60.3-20.6,78.5-42.2c-2.5-1.8-4.2-4.4-7.9-5.1C181.2,162.3,160.1,176.6,137.1,185.5 M124.8,198.6c0.5,4.7-0.9,11.2,0.7,14.6c22.3-11.7,48.5-19.4,73.5-28.3c0.7-5.7,3.6-12.9,2.2-18.2C179.9,181.4,151.2,188.9,124.8,198.6"/>
<path  fill="currentColor" d="M128,10C62.9,10,10,62.8,10,128c0,65.2,52.9,118,118,118c65.2,0,118-52.8,118-118C246,62.8,193.2,10,128,10 M128,235.3c-58.7,0-106.3-47.6-106.3-106.3C21.8,70.3,69.3,22.7,128,22.7c58.7,0,106.3,47.6,106.3,106.3C234.3,187.7,186.7,235.3,128,235.3"/></g></g>
</svg>