<?xml version="1.0" encoding="UTF-8"?>
<svg width="1200pt" height="1200pt" fill="currentColor" version="1.1" viewBox="0 0 1200 1200" xmlns="http://www.w3.org/2000/svg">
 <path d="m600 1200c331.37 0 599.99-268.63 599.99-600s-268.62-600-599.99-600-599.99 268.63-599.99 600 268.62 600 599.99 600zm-3.8516-1012c55.152 0 92.652 41.914 92.652 95.977 0 57.371-40.812 97.066-92.652 97.066-50.746 0-91.57-39.707-91.57-97.066-0.003906-56.258 40.82-95.977 91.57-95.977zm-145.62 777.71c65.09 0 70.609-9.9258 70.609-91.547v-252.65c0-81.625-4.4023-87.145-70.609-87.145v-44.113c67.297-4.4297 139-22.078 215.12-54.059l18.758 9.9258v429.12c0 80.531 6.6133 90.457 65.074 90.457v46.309l-298.96-0.003906z"/>
</svg>
