<?xml version="1.0" encoding="utf-8"?>
<svg version="1.1" fill="currentColor" xmlns="http://www.w3.org/2000/svg" xmlns:xlink="http://www.w3.org/1999/xlink" x="0px" y="0px" viewBox="0 0 256 256" enable-background="new 0 0 256 256" xml:space="preserve">
<g><g><g><path fill="currentColor" d="M115.8,10.6c-13.1,1.3-27.6,5.5-39.8,11.6C52,34.1,34.1,51.9,22.2,76c-28.7,57.7-5.2,128,52.4,157.2c58.1,29.5,129,6.3,158.5-51.9c23.2-45.5,14.4-100.6-21.8-136.7C186.4,19.6,151.2,7,115.8,10.6z M187,85.8c-0.9,0.8-58.5,36.6-59,36.6S69.9,86.7,69,85.8c-0.3-0.3,24.3-0.5,59-0.5C162.4,85.3,187.3,85.6,187,85.8z M91.9,117c18.1,11.2,33.6,20.7,34.5,20.9c1.2,0.3,2.4,0.3,3.8-0.2c1.1-0.4,16.8-10,35-21.3c18.1-11.4,33.1-20.4,33.4-20.2c0.3,0.3,0.4,16.4,0.3,35.9c-0.2,35.4-0.2,35.4-1.4,37.7c-1.7,3.1-5.2,6-8.2,6.8c-1.7,0.4-20.2,0.6-61.4,0.6c-67.1,0-62.8,0.3-67.1-4.4c-1.8-2-2.7-3.5-3.1-5.6c-0.7-3-0.9-70.4-0.3-71C57.9,95.8,53.7,93.3,91.9,117z"/></g></g></g>
</svg>